<svg width="10" height="11" viewBox="0 0 10 11" fill="none" xmlns="http://www.w3.org/2000/svg">
<path d="M0.84225 9.70037L0 0.25H9.258L8.41462 9.69888L4.62337 10.75L0.84225 9.70037Z" fill="#1572B6"/>
<path d="M4.62903 9.9467L7.69278 9.09733L8.41353 1.02283H4.62903V9.9467Z" fill="#33A9DC"/>
<path d="M4.62903 4.44659H6.16278L6.26853 3.25971H4.62903V2.10059H7.53528L7.50753 2.41146L7.2229 5.60571H4.62903V4.44659Z" fill="white"/>
<path d="M4.63612 7.45681L4.63087 7.45831L3.34012 7.10956L3.25762 6.18518H2.09399L2.25637 8.00506L4.63049 8.66431L4.63612 8.66281V7.45681Z" fill="#EBEBEB"/>
<path d="M6.06421 5.55664L5.92471 7.10877L4.63208 7.45752V8.66352L7.00808 8.00502L7.02571 7.80927L7.22708 5.55664H6.06421Z" fill="white"/>
<path d="M4.63312 2.10059V3.25971H1.83337L1.81012 2.99909L1.75724 2.41146L1.72949 2.10059H4.63312ZM4.62899 4.44659V5.60571H3.35437L3.33112 5.34509L3.27862 4.75746L3.25087 4.44659H4.62899Z" fill="#EBEBEB"/>
</svg>
