<svg width="12" height="13" viewBox="0 0 12 13" fill="none" xmlns="http://www.w3.org/2000/svg">
<path d="M2.21323 10.7004L1.37061 1.25H10.6294L9.7856 10.6989L5.99436 11.75L2.21323 10.7004Z" fill="#E44F26"/>
<path d="M6 10.9468L9.06375 10.0974L9.7845 2.02289H6V10.9468Z" fill="#F1662A"/>
<path d="M6 5.52764H4.46625L4.3605 4.34077H6V3.18164H3.09375L3.1215 3.49289L3.40613 6.68677H6V5.52764ZM6 8.53777L5.99475 8.53927L4.704 8.19089L4.6215 7.26652H3.45787L3.62025 9.08602L5.99475 9.74527L6 9.74377V8.53777Z" fill="#EBEBEB"/>
<path d="M5.99585 5.52764V6.68677H7.4231L7.28885 8.19014L5.99585 8.53889V9.74489L8.37222 9.08602L8.38947 8.89027L8.66172 5.83889L8.69022 5.52764H5.99585ZM5.99585 3.18164V4.34077H8.7956L8.81885 4.08052L8.87172 3.49289L8.89947 3.18164H5.99585Z" fill="white"/>
</svg>
