<svg width="12" height="13" viewBox="0 0 12 13" fill="none" xmlns="http://www.w3.org/2000/svg">
<path d="M7.70957 9.6702C7.74647 9.72678 7.7674 9.79228 7.77015 9.85977C7.7729 9.92726 7.75737 9.99425 7.7252 10.0536C7.69303 10.113 7.64541 10.1626 7.58738 10.1972C7.52935 10.2318 7.46306 10.25 7.39551 10.25H0.479568C0.41202 10.25 0.345727 10.2318 0.287695 10.1972C0.229663 10.1626 0.182046 10.113 0.149875 10.0536C0.117704 9.99425 0.102174 9.92726 0.104926 9.85977C0.107677 9.79228 0.128607 9.72678 0.165506 9.6702C0.693368 8.85768 1.4698 8.23762 2.37894 7.90254C1.87635 7.56795 1.49477 7.08049 1.29065 6.51225C1.08652 5.94402 1.07067 5.32518 1.24545 4.74725C1.42024 4.16931 1.77637 3.66297 2.26118 3.30309C2.74599 2.94321 3.33375 2.7489 3.93754 2.7489C4.54132 2.7489 5.12908 2.94321 5.61389 3.30309C6.09871 3.66297 6.45484 4.16931 6.62962 4.74725C6.8044 5.32518 6.78856 5.94402 6.58443 6.51225C6.3803 7.08049 5.99873 7.56795 5.49613 7.90254C6.40528 8.23762 7.18171 8.85768 7.70957 9.6702ZM11.8303 9.66317C11.3023 8.85407 10.5276 8.23668 9.62113 7.90254C10.2145 7.50287 10.6332 6.89211 10.7921 6.19458C10.951 5.49705 10.8381 4.76519 10.4764 4.14796C10.1147 3.53073 9.53143 3.07453 8.84523 2.87221C8.15904 2.6699 7.42154 2.73667 6.78285 3.05895C6.75843 3.07156 6.73708 3.08938 6.72031 3.11116C6.70354 3.13294 6.69176 3.15814 6.68582 3.18497C6.67987 3.21181 6.67989 3.23962 6.68589 3.26645C6.69188 3.29327 6.7037 3.31845 6.72051 3.3402C7.19543 3.93261 7.46818 4.66153 7.4988 5.42019C7.52942 6.17885 7.3163 6.92738 6.89066 7.55614C6.86315 7.59723 6.85299 7.64752 6.86238 7.69607C6.87177 7.74462 6.89997 7.78749 6.94082 7.81536C7.49578 8.20265 7.97086 8.69333 8.34004 9.26051C8.48893 9.48854 8.54975 9.76296 8.51113 10.0325C8.50678 10.0594 8.50832 10.0868 8.51562 10.113C8.52293 10.1391 8.53583 10.1634 8.55344 10.1841C8.57105 10.2048 8.59295 10.2214 8.61761 10.2328C8.64228 10.2442 8.66912 10.2501 8.69629 10.25H11.5229C11.6054 10.2501 11.6857 10.2228 11.7512 10.1726C11.8167 10.1223 11.8638 10.0518 11.8852 9.97207C11.8982 9.91962 11.9001 9.86501 11.8906 9.81179C11.8812 9.75857 11.8606 9.70793 11.8303 9.66317Z" fill="#00B1F7"/>
</svg>
