<svg width="12" height="13" viewBox="0 0 12 13" fill="none" xmlns="http://www.w3.org/2000/svg">
<g clip-path="url(#clip0_252_998)">
<path d="M11.9638 11.4863C11.8747 10.8548 11.1727 10.5337 10.6421 10.8386L10.1142 10.3048L7.48633 3.08481L7.5011 2.25015C8.05832 2.1174 8.36821 1.46722 8.06188 0.940068C7.71953 0.350966 6.86228 0.353896 6.52251 0.945388C6.22837 1.45743 6.51154 2.0807 7.03539 2.23743L7.02124 3.0377L2.26138 8.72012L1.68393 8.88043C1.42917 8.44773 0.827642 8.28798 0.383994 8.61831C-0.163577 9.02603 -0.063475 9.87725 0.563759 10.1468C1.15853 10.4024 1.80768 9.95476 1.80536 9.33022L2.51212 9.13405L9.69688 10.5453L10.3116 11.1669C10.0551 11.6113 10.2278 12.2245 10.7496 12.4347C11.3829 12.6897 12.059 12.1616 11.9638 11.4863ZM9.32969 9.51158L7.40704 7.56749L7.46336 4.38386L9.32969 9.51158ZM7.00813 3.77882L6.9437 7.42042L3.05322 8.50035L7.00813 3.77882ZM3.5136 8.85604L7.05426 7.87323L9.11418 9.95615L3.5136 8.85604Z" fill="#BF1CFF"/>
</g>
<defs>
<clipPath id="clip0_252_998">
<rect width="12" height="12" fill="white" transform="translate(0 0.5)"/>
</clipPath>
</defs>
</svg>
