<svg xmlns="http://www.w3.org/2000/svg" fill="none" viewBox="0 0 36 36" height="36" width="36">
<path fill="white" d="M6.33322 26.6667C5.53878 26.6667 4.85893 26.384 4.29367 25.8188C3.72841 25.2535 3.4453 24.5732 3.44434 23.7778V7.88889C3.44434 7.09444 3.72745 6.41459 4.29367 5.84933C4.85989 5.28407 5.53974 5.00096 6.33322 5H29.4443C30.2388 5 30.9191 5.28311 31.4853 5.84933C32.0516 6.41556 32.3342 7.09541 32.3332 7.88889V23.7778C32.3332 24.5722 32.0506 25.2526 31.4853 25.8188C30.9201 26.385 30.2397 26.6676 29.4443 26.6667H25.111L26.1221 27.6778C26.2666 27.8222 26.3749 27.985 26.4471 28.166C26.5193 28.347 26.5554 28.5334 26.5554 28.725V29.5556C26.5554 29.9648 26.4168 30.3076 26.1394 30.584C25.8621 30.8604 25.5193 30.999 25.111 31H10.6666C10.2573 31 9.91448 30.8613 9.63811 30.584C9.36174 30.3067 9.22308 29.9639 9.22211 29.5556V28.725C9.22211 28.5324 9.25822 28.3461 9.33045 28.166C9.40267 27.9859 9.511 27.8232 9.65545 27.6778L10.6666 26.6667H6.33322ZM6.33322 23.7778H29.4443V7.88889H6.33322V23.7778Z"></path>
</svg>
